<svg width="80" height="80" viewBox="0 0 80 80" fill="none" xmlns="http://www.w3.org/2000/svg">
<rect width="80" height="80" rx="40" fill="#FDD9FF"/>
<path d="M42.3821 63.8333C39.3488 63.8333 36.5054 63.2555 33.8519 62.0999C31.1985 60.9444 28.8874 59.3822 26.9186 57.4134C24.9498 55.4461 23.3877 53.135 22.2321 50.4801C21.0766 47.8252 20.4988 44.9818 20.4988 41.9499C20.4988 36.6777 22.1779 32.028 25.5363 28.0009C28.8946 23.9738 33.1738 21.4735 38.3738 20.4999C37.7238 24.0749 37.9224 27.569 38.9696 30.9823C40.0168 34.3955 41.8224 37.3833 44.3863 39.9458C46.9502 42.5097 49.9387 44.3152 53.3519 45.3624C56.7652 46.4097 60.2586 46.6083 63.8321 45.9583C62.8932 51.1583 60.4016 55.4374 56.3571 58.7958C52.3127 62.1541 47.6543 63.8333 42.3821 63.8333ZM42.3821 59.4999C45.5599 59.4999 48.5029 58.7055 51.2113 57.1166C53.9196 55.5277 56.0502 53.343 57.6029 50.5624C54.4974 50.2735 51.5543 49.4878 48.7738 48.2051C45.9932 46.9224 43.5016 45.1804 41.2988 42.9791C39.096 40.7763 37.3446 38.2847 36.0446 35.5041C34.7446 32.7235 33.9682 29.7805 33.7154 26.6749C30.9349 28.2277 28.7596 30.3677 27.1894 33.0948C25.6193 35.8219 24.8336 38.7736 24.8321 41.9499C24.8321 46.8249 26.5387 50.969 29.9519 54.3823C33.3652 57.7955 37.5086 59.5014 42.3821 59.4999Z" fill="#F86BFF"/>
</svg>
