<svg width="80" height="80" viewBox="0 0 80 80" fill="none" xmlns="http://www.w3.org/2000/svg">
<rect width="80" height="80" rx="40" fill="#E1FFD6"/>
<path d="M40.0006 62.0833C37.277 62.0833 34.7094 61.5584 32.2979 60.5087C29.8864 59.459 27.7797 58.0332 25.9777 56.2312C24.1742 54.4277 22.7476 52.3202 21.6979 49.9087C20.6483 47.4972 20.1241 44.9304 20.1256 42.2083H24.5423C24.5423 46.4777 26.0513 50.1215 29.0694 53.1395C32.0874 56.1576 35.7312 57.6666 40.0006 57.6666C44.2701 57.6666 47.9138 56.1576 50.9319 53.1395C53.9499 50.1215 55.4589 46.4777 55.4589 42.2083H59.8756C59.8756 44.9319 59.3508 47.4995 58.3011 49.9109C57.2514 52.3224 55.8255 54.4292 54.0235 56.2312C52.2201 58.0347 50.1126 59.4613 47.7011 60.5109C45.2896 61.5606 42.7227 62.0848 40.0006 62.0833ZM20.1256 42.2083C20.1256 39.4847 20.6505 36.9171 21.7002 34.5056C22.7498 32.0941 24.1757 29.9874 25.9777 28.1854C27.7812 26.3819 29.8887 24.9553 32.3002 23.9056C34.7117 22.8559 37.2785 22.3318 40.0006 22.3333C42.2826 22.3333 44.4725 22.7013 46.5704 23.4374C48.6683 24.1736 50.6374 25.2409 52.4777 26.6395L55.5694 23.5479L58.661 26.6395L55.5694 29.7312C56.968 31.5715 58.0353 33.5406 58.7714 35.6385C59.5076 37.7364 59.8756 39.9263 59.8756 42.2083H55.4589C55.4589 37.9388 53.9499 34.2951 50.9319 31.277C47.9138 28.259 44.2701 26.7499 40.0006 26.7499C35.7312 26.7499 32.0874 28.259 29.0694 31.277C26.0513 34.2951 24.5423 37.9388 24.5423 42.2083H20.1256ZM33.3756 20.1249V15.7083H46.6256V20.1249H33.3756ZM40.0006 26.7499C36.0992 26.7499 32.7131 28.0197 29.8423 30.5593C26.9714 33.0989 25.26 36.2458 24.7079 39.9999H32.5475L35.4183 45.2999L44.4173 29.5104L50.1589 39.9999H55.2933C54.7412 36.2458 53.0298 33.0989 50.1589 30.5593C47.2881 28.0197 43.902 26.7499 40.0006 26.7499ZM40.0006 57.6666C43.902 57.6666 47.2881 56.3968 50.1589 53.8572C53.0298 51.3177 54.7412 48.1708 55.2933 44.4166H47.4537L44.5829 39.1166L35.5839 54.9062L29.8423 44.4166H24.7079C25.26 48.1708 26.9714 51.3177 29.8423 53.8572C32.7131 56.3968 36.0992 57.6666 40.0006 57.6666ZM40.0006 57.6666C35.7312 57.6666 32.0874 56.1576 29.0694 53.1395C26.0513 50.1215 24.5423 46.4777 24.5423 42.2083C24.5423 37.9388 26.0513 34.2951 29.0694 31.277C32.0874 28.259 35.7312 26.7499 40.0006 26.7499C44.2701 26.7499 47.9138 28.259 50.9319 31.277C53.9499 34.2951 55.4589 37.9388 55.4589 42.2083C55.4589 46.4777 53.9499 50.1215 50.9319 53.1395C47.9138 56.1576 44.2701 57.6666 40.0006 57.6666Z" fill="#8AFC5C"/>
</svg>
