<svg width="80" height="80" viewBox="0 0 80 80" fill="none" xmlns="http://www.w3.org/2000/svg">
<rect width="80" height="80" rx="40" fill="#FFDEDB"/>
<path d="M47 37.6667H50.5V44.2467L56.1934 47.5367L54.4434 50.57L47 46.2767V37.6667ZM54.3034 29.1033C52.2034 23.2233 46.6034 19 40 19C33.7 19 28.3334 22.85 26 28.3333C19.56 28.3333 14.3334 33.56 14.3334 40C14.3334 46.44 19.56 51.6667 26 51.6667H34.5867C37.2234 57.1733 42.8234 61 49.3334 61C58.3634 61 65.6667 53.6967 65.6667 44.6667C65.6667 37.3867 60.9067 31.2267 54.3034 29.1033ZM26 47C22.1267 47 19 43.8733 19 40C19 36.1267 22.1267 33 26 33C26.8634 33 27.7034 33.1633 28.4734 33.4433C28.9237 30.7117 30.33 28.229 32.4413 26.4383C34.5526 24.6475 37.2316 23.6652 40 23.6667C43.8034 23.6667 47.1634 25.51 49.3334 28.3333C40.28 28.3333 33 35.66 33 44.6667C33 45.46 33.07 46.23 33.1867 47H26ZM49.3334 56.3333C42.8934 56.3333 37.6667 51.1067 37.6667 44.6667C37.6667 38.2267 42.8934 33 49.3334 33C55.7734 33 61 38.2267 61 44.6667C61 51.1067 55.7734 56.3333 49.3334 56.3333Z" fill="#FF8B81"/>
</svg>
