<svg width="80" height="80" viewBox="0 0 80 80" fill="none" xmlns="http://www.w3.org/2000/svg">
<rect width="80" height="80" rx="40" fill="#FFF4DC"/>
<g clip-path="url(#clip0_1_503)">
<path fill-rule="evenodd" clip-rule="evenodd" d="M34.9083 17.572C38.0773 16.8527 41.3627 16.813 44.5481 17.4556C47.7336 18.0982 50.7467 19.4085 53.3889 21.3002C56.0311 23.1919 58.2425 25.6221 59.8774 28.4305C61.5122 31.2389 62.5333 34.3619 62.8735 37.5936C62.9334 38.1624 62.7648 38.7318 62.4049 39.1763C62.045 39.6208 61.5233 39.9042 60.9545 39.9641C60.3856 40.0239 59.8163 39.8554 59.3718 39.4955C58.9272 39.1356 58.6439 38.6138 58.584 38.045C58.2144 34.5335 56.8576 31.1986 54.6707 28.4265C52.4837 25.6545 49.5562 23.5587 46.2272 22.3819C42.8982 21.2052 39.3039 20.9956 35.8607 21.7775C32.4175 22.5594 29.2663 24.3008 26.772 26.8C24.2778 29.2991 22.5426 32.4538 21.7674 35.8985C20.9923 39.3432 21.2089 42.9371 22.3922 46.2638C23.5754 49.5905 25.677 52.5139 28.4533 54.6953C31.2297 56.8768 34.5672 58.2271 38.0794 58.5898C38.3632 58.6163 38.6388 58.6987 38.8905 58.8324C39.1422 58.966 39.3649 59.1482 39.5457 59.3684C39.7266 59.5886 39.8619 59.8425 39.9441 60.1154C40.0262 60.3883 40.0534 60.6747 40.0241 60.9582C39.9949 61.2416 39.9097 61.5165 39.7736 61.7668C39.6375 62.0171 39.4531 62.238 39.2311 62.4167C39.0091 62.5953 38.7539 62.7282 38.4802 62.8076C38.2065 62.887 37.9198 62.9114 37.6367 62.8793C32.2113 62.3211 27.1608 59.8531 23.3867 55.9158C19.6126 51.9785 17.3605 46.8281 17.0323 41.384C16.7041 35.9398 18.3213 30.5562 21.5951 26.194C24.8689 21.8319 29.5864 18.775 34.9054 17.5692L34.9083 17.572ZM39.9999 25.6249C40.5718 25.6249 41.1203 25.8521 41.5247 26.2565C41.929 26.6609 42.1562 27.2093 42.1562 27.7812V42.875H30.6562C30.0843 42.875 29.5358 42.6478 29.1315 42.2435C28.7271 41.8391 28.4999 41.2906 28.4999 40.7188C28.4999 40.1469 28.7271 39.5984 29.1315 39.1941C29.5358 38.7897 30.0843 38.5625 30.6562 38.5625H37.8437V27.7812C37.8437 27.2093 38.0709 26.6609 38.4752 26.2565C38.8796 25.8521 39.4281 25.6249 39.9999 25.6249ZM46.3825 46.3825C46.7868 45.9787 47.3348 45.7519 47.9062 45.7519C48.4776 45.7519 49.0257 45.9787 49.43 46.3825L54.375 51.3275L59.32 46.3825C59.5174 46.1707 59.7555 46.0008 60.02 45.8829C60.2845 45.7651 60.57 45.7017 60.8595 45.6966C61.1491 45.6915 61.4366 45.7447 61.7051 45.8532C61.9736 45.9616 62.2175 46.123 62.4223 46.3278C62.627 46.5326 62.7884 46.7764 62.8969 47.0449C63.0053 47.3134 63.0586 47.601 63.0535 47.8905C63.0484 48.1801 62.985 48.4656 62.8672 48.7301C62.7493 48.9946 62.5794 49.2326 62.3675 49.43L57.4225 54.3751L62.3675 59.3201C62.5794 59.5175 62.7493 59.7555 62.8672 60.02C62.985 60.2845 63.0484 60.5701 63.0535 60.8596C63.0586 61.1491 63.0053 61.4367 62.8969 61.7052C62.7884 61.9737 62.627 62.2176 62.4223 62.4223C62.2175 62.6271 61.9736 62.7885 61.7051 62.897C61.4366 63.0054 61.1491 63.0587 60.8595 63.0535C60.57 63.0484 60.2845 62.9851 60.02 62.8672C59.7555 62.7494 59.5174 62.5794 59.32 62.3676L54.375 57.4226L49.43 62.3676C49.2326 62.5794 48.9945 62.7494 48.73 62.8672C48.4655 62.9851 48.18 63.0484 47.8905 63.0535C47.601 63.0587 47.3134 63.0054 47.0449 62.897C46.7764 62.7885 46.5325 62.6271 46.3277 62.4223C46.123 62.2176 45.9616 61.9737 45.8531 61.7052C45.7447 61.4367 45.6914 61.1491 45.6965 60.8596C45.7016 60.5701 45.765 60.2845 45.8829 60.02C46.0007 59.7555 46.1706 59.5175 46.3825 59.3201L51.3275 54.3751L46.3825 49.43C45.9787 49.0257 45.7519 48.4777 45.7519 47.9063C45.7519 47.3349 45.9787 46.7868 46.3825 46.3825Z" fill="#FEC653"/>
</g>
<defs>
<clipPath id="clip0_1_503">
<rect width="46.0002" height="46.0002" fill="white" transform="translate(16.9999 16.9999)"/>
</clipPath>
</defs>
</svg>
