<svg width="132" height="35" viewBox="0 0 132 35" fill="none" xmlns="http://www.w3.org/2000/svg">
<path d="M0.968004 27L0.968004 1.73223L21.5266 1.73223C22.3935 1.73223 23.1783 1.9548 23.8812 2.39995C24.6075 2.82166 25.1815 3.39566 25.6032 4.12195C26.0483 4.82481 26.2709 5.60967 26.2709 6.47653L26.2709 13.4348C26.2709 14.2783 26.0483 15.0631 25.6032 15.7894C25.1815 16.5157 24.6075 17.0897 23.8812 17.5114C23.1783 17.9331 22.3935 18.144 21.5266 18.144L5.18516 18.1791L5.18516 27L0.968004 27ZM5.81773 13.8917L21.386 13.8917C21.55 13.8917 21.6906 13.8331 21.8078 13.716C21.9483 13.5988 22.0186 13.4465 22.0186 13.2591L22.0186 6.58196C22.0186 6.41796 21.9483 6.27739 21.8078 6.16024C21.6906 6.01967 21.55 5.94938 21.386 5.94938L5.81773 5.94938C5.65373 5.94938 5.50144 6.01967 5.36087 6.16024C5.24373 6.27739 5.18516 6.41796 5.18516 6.58196L5.18516 13.2591C5.18516 13.4465 5.24373 13.5988 5.36087 13.716C5.50144 13.8331 5.65373 13.8917 5.81773 13.8917ZM33.3352 27C32.4683 27 31.6718 26.7891 30.9455 26.3674C30.2426 25.9223 29.6803 25.3483 29.2586 24.6454C28.8369 23.9426 28.626 23.1577 28.626 22.2908L28.626 14.7L45.1432 14.7L45.1432 11.4668C45.1432 11.2794 45.0729 11.1271 44.9324 11.01C44.8152 10.8694 44.6629 10.7991 44.4755 10.7991L28.626 10.7991L28.626 6.6171L44.6161 6.6171C45.5064 6.6171 46.3029 6.83967 47.0058 7.28482C47.7087 7.70653 48.2709 8.26882 48.6927 8.97168C49.1144 9.67454 49.3252 10.4594 49.3252 11.3263L49.3252 27L33.3352 27ZM33.4758 22.818L45.1432 22.818L45.1432 18.5306L32.808 18.5306L32.808 22.1503C32.808 22.3377 32.8666 22.5017 32.9838 22.6423C33.1243 22.7594 33.2883 22.818 33.4758 22.818ZM57.7713 27C56.9045 27 56.1079 26.7891 55.3816 26.3674C54.6788 25.9223 54.1165 25.3483 53.6948 24.6454C53.273 23.9426 53.0622 23.1577 53.0622 22.2908L53.0622 0.25623L57.2442 0.25623L57.2442 6.6171L65.3974 6.6171L65.3974 10.7991L57.2442 10.7991L57.2442 22.1503C57.2442 22.3377 57.3028 22.5017 57.4199 22.6423C57.5605 22.7594 57.7245 22.818 57.9119 22.818L65.3974 22.818L65.3974 27L57.7713 27ZM68.3678 27L68.3678 11.3263C68.3678 10.4594 68.5786 9.67454 69.0003 8.97168C69.4455 8.26882 70.0195 7.70653 70.7223 7.28482C71.4486 6.83967 72.2335 6.6171 73.0769 6.6171L84.4281 6.6171L84.4281 10.7991L73.2175 10.7991C73.03 10.7991 72.866 10.8694 72.7255 11.01C72.6083 11.1271 72.5498 11.2794 72.5498 11.4668L72.5498 27L68.3678 27ZM89.719 34.6612L89.719 30.444L102.124 30.444C102.288 30.444 102.429 30.3737 102.546 30.2331C102.687 30.116 102.757 29.9754 102.757 29.8114L102.757 27L90.949 27C90.1056 27 89.3207 26.7891 88.5944 26.3674C87.8916 25.9223 87.3176 25.3483 86.8724 24.6454C86.4507 23.9426 86.2399 23.1577 86.2399 22.2908L86.2399 6.68739L90.4219 6.68739L90.4219 22.1503C90.4219 22.3377 90.4804 22.5017 90.5976 22.6423C90.7381 22.7594 90.9021 22.818 91.0896 22.818L102.124 22.818C102.288 22.818 102.429 22.7594 102.546 22.6423C102.687 22.5017 102.757 22.3377 102.757 22.1503L102.757 6.68739L106.939 6.68739L106.939 29.952C106.939 30.8423 106.728 31.6389 106.306 32.3417C105.908 33.0446 105.346 33.6069 104.62 34.0286C103.917 34.4503 103.132 34.6612 102.265 34.6612L89.719 34.6612ZM110.438 27L110.438 26.0511L118.17 16.6328L110.438 7.56596L110.438 6.6171L115.147 6.6171L120.911 13.3997L126.639 6.6171L131.348 6.6171L131.348 7.56596L123.617 16.6328L131.383 26.0511L131.383 27L126.674 27L120.911 19.9363L115.147 27L110.438 27Z" fill="#0705A2"/>
</svg>
