<svg width="80" height="80" viewBox="0 0 80 80" fill="none" xmlns="http://www.w3.org/2000/svg">
<rect width="80" height="80" rx="40" fill="#B3C6FF"/>
<path d="M48.2227 58.5V54.3889C48.2227 52.2082 47.3564 50.1169 45.8144 48.5749C44.2725 47.0329 42.1811 46.1667 40.0004 46.1667H27.6671C25.4864 46.1667 23.3951 47.0329 21.8531 48.5749C20.3112 50.1169 19.4449 52.2082 19.4449 54.3889V58.5" stroke="#0043FF" stroke-width="4.11111" stroke-linecap="round" stroke-linejoin="round"/>
<path d="M33.8351 37.9444C38.3761 37.9444 42.0573 34.2632 42.0573 29.7222C42.0573 25.1812 38.3761 21.5 33.8351 21.5C29.2941 21.5 25.6129 25.1812 25.6129 29.7222C25.6129 34.2632 29.2941 37.9444 33.8351 37.9444Z" stroke="#0043FF" stroke-width="4.11111" stroke-linecap="round" stroke-linejoin="round"/>
<path d="M60.5552 58.5V54.3889C60.5538 52.5671 59.9475 50.7974 58.8313 49.3575C57.7152 47.9177 56.1525 46.8893 54.3885 46.4339M48.2219 21.7672C49.9905 22.2201 51.5581 23.2487 52.6776 24.6908C53.797 26.133 54.4047 27.9068 54.4047 29.7325C54.4047 31.5582 53.797 33.3319 52.6776 34.7741C51.5581 36.2163 49.9905 37.2449 48.2219 37.6978" stroke="#0043FF" stroke-width="4.11111" stroke-linecap="round" stroke-linejoin="round"/>
</svg>
