<svg width="192" height="53" viewBox="0 0 192 53" fill="none" xmlns="http://www.w3.org/2000/svg">
<mask id="path-1-outside-1_47_1011" maskUnits="userSpaceOnUse" x="0" y="0" width="192" height="53" fill="black">
<rect fill="white" width="192" height="53"/>
<path d="M0.5625 1.25H36.8125V13.75H31.1875V11.25C31.1875 10.7396 31.1406 10.2135 31.0469 9.67188C30.9635 9.13021 30.8281 8.59375 30.6406 8.0625C30.4635 7.53125 30.2031 7.09896 29.8594 6.76562C29.5156 6.42188 29.125 6.25 28.6875 6.25H23.6875V35H28.6875V40H8.6875V35H13.6875V6.25H8.6875C8.25 6.25 7.85938 6.42188 7.51562 6.76562C7.17188 7.09896 6.90625 7.53125 6.71875 8.0625C6.54167 8.59375 6.40625 9.13021 6.3125 9.67188C6.22917 10.2135 6.1875 10.7396 6.1875 11.25V13.75H0.5625V1.25ZM46.7812 27.5C46.875 28.7083 47.0729 29.7865 47.375 30.7344C47.6771 31.6823 48.0417 32.4583 48.4688 33.0625C48.9062 33.6667 49.4115 34.1667 49.9844 34.5625C50.5573 34.9479 51.1458 35.224 51.75 35.3906C52.3542 35.5469 53 35.625 53.6875 35.625C55.8854 35.625 57.599 35.2031 58.8281 34.3594C60.0677 33.5052 61.0573 32.1927 61.7969 30.4219L65.9531 31.8594C65.5781 32.8698 65.099 33.8229 64.5156 34.7188C63.9427 35.6042 63.25 36.4219 62.4375 37.1719C61.625 37.9219 60.7188 38.5677 59.7188 39.1094C58.7292 39.6406 57.6094 40.0573 56.3594 40.3594C55.1094 40.6615 53.7917 40.8125 52.4062 40.8125C50.3542 40.8125 48.4115 40.4531 46.5781 39.7344C44.7552 39.0156 43.1667 38.0156 41.8125 36.7344C40.4688 35.4427 39.401 33.8542 38.6094 31.9688C37.8281 30.0833 37.4375 28.0312 37.4375 25.8125C37.4375 23.5938 37.8281 21.5312 38.6094 19.625C39.401 17.7188 40.4688 16.1146 41.8125 14.8125C43.1667 13.5 44.7552 12.474 46.5781 11.7344C48.4115 10.9948 50.3542 10.625 52.4062 10.625C54.4583 10.625 56.3958 10.9948 58.2188 11.7344C60.0521 12.474 61.6406 13.5 62.9844 14.8125C64.3385 16.1146 65.4062 17.7188 66.1875 19.625C66.9792 21.5312 67.375 23.5938 67.375 25.8125L66.9844 27.5H46.7812ZM46.8906 22.5H57.9219C57.651 20.1042 57.0521 18.3594 56.125 17.2656C55.1979 16.1719 53.9688 15.625 52.4375 15.625C51.6771 15.625 50.9948 15.75 50.3906 16C49.7865 16.2396 49.2448 16.6302 48.7656 17.1719C48.2865 17.7031 47.8854 18.4167 47.5625 19.3125C47.25 20.1979 47.026 21.2604 46.8906 22.5ZM86.125 16.25V11.25H101.125V16.25H97.0312L90.8281 23.0625L99.1875 35H101.75V40H86.75V35H88.75L81.75 25L89.7188 16.25H86.125ZM68.625 1.25H80.5V35H83.625V40H68.625V35H71.75V6.25H68.625V1.25ZM104.25 1.25H116.125V35H119.25V40H104.25V35H107.375V6.25H104.25V1.25ZM122.578 49.6406C122.026 48.8073 121.75 47.8854 121.75 46.875C121.75 45.4896 122.234 44.3073 123.203 43.3281C124.182 42.3594 125.365 41.875 126.75 41.875C128.135 41.875 129.312 42.3594 130.281 43.3281C131.26 44.3073 131.75 45.4896 131.75 46.875C131.75 47.1667 131.724 47.4479 131.672 47.7188C131.714 47.7292 131.75 47.7344 131.781 47.7344C132.531 47.7344 133.448 46.4948 134.531 44.0156L135.703 41.3281L124.688 16.25H121.75V11.25H139.25V16.25H134.109L139.062 27.5C139.698 28.9792 140.156 30.2292 140.438 31.25C140.719 30.2292 141.177 28.9792 141.812 27.5L146.75 16.25H142.375V11.25H155.5V16.25H152.188L141.75 40C141.208 41.2292 140.719 42.2865 140.281 43.1719C139.854 44.0677 139.37 44.974 138.828 45.8906C138.297 46.8177 137.781 47.599 137.281 48.2344C136.781 48.8698 136.214 49.474 135.578 50.0469C134.953 50.6198 134.302 51.0729 133.625 51.4062C132.948 51.75 132.198 52.0156 131.375 52.2031C130.552 52.401 129.667 52.5 128.719 52.5C127.833 52.5 127.052 52.4271 126.375 52.2812C125.698 52.1458 125.12 51.9375 124.641 51.6562C124.172 51.3854 123.781 51.0885 123.469 50.7656C123.156 50.4531 122.859 50.0781 122.578 49.6406ZM178.625 10.625C180.083 10.625 181.359 10.8229 182.453 11.2188C183.547 11.6146 184.443 12.1615 185.141 12.8594C185.839 13.5469 186.401 14.4271 186.828 15.5C187.266 16.5625 187.568 17.7083 187.734 18.9375C187.911 20.1562 188 21.5521 188 23.125V35H191.125V40H176.125V35H179.25V22.5C179.25 20.8542 179.099 19.5729 178.797 18.6562C178.505 17.7396 178.078 17.1094 177.516 16.7656C176.964 16.4219 176.208 16.25 175.25 16.25C174.375 16.25 173.479 16.6198 172.562 17.3594C171.646 18.099 170.776 19.1302 169.953 20.4531L169.875 35H173V40H158V35H161.125V16.25H158V11.25H167.703L169.891 15.4844C170.276 14.7865 170.719 14.1615 171.219 13.6094C171.729 13.0469 172.333 12.5365 173.031 12.0781C173.74 11.6094 174.568 11.25 175.516 11C176.464 10.75 177.5 10.625 178.625 10.625Z"/>
</mask>
<path d="M0.5625 1.25H36.8125V13.75H31.1875V11.25C31.1875 10.7396 31.1406 10.2135 31.0469 9.67188C30.9635 9.13021 30.8281 8.59375 30.6406 8.0625C30.4635 7.53125 30.2031 7.09896 29.8594 6.76562C29.5156 6.42188 29.125 6.25 28.6875 6.25H23.6875V35H28.6875V40H8.6875V35H13.6875V6.25H8.6875C8.25 6.25 7.85938 6.42188 7.51562 6.76562C7.17188 7.09896 6.90625 7.53125 6.71875 8.0625C6.54167 8.59375 6.40625 9.13021 6.3125 9.67188C6.22917 10.2135 6.1875 10.7396 6.1875 11.25V13.75H0.5625V1.25ZM46.7812 27.5C46.875 28.7083 47.0729 29.7865 47.375 30.7344C47.6771 31.6823 48.0417 32.4583 48.4688 33.0625C48.9062 33.6667 49.4115 34.1667 49.9844 34.5625C50.5573 34.9479 51.1458 35.224 51.75 35.3906C52.3542 35.5469 53 35.625 53.6875 35.625C55.8854 35.625 57.599 35.2031 58.8281 34.3594C60.0677 33.5052 61.0573 32.1927 61.7969 30.4219L65.9531 31.8594C65.5781 32.8698 65.099 33.8229 64.5156 34.7188C63.9427 35.6042 63.25 36.4219 62.4375 37.1719C61.625 37.9219 60.7188 38.5677 59.7188 39.1094C58.7292 39.6406 57.6094 40.0573 56.3594 40.3594C55.1094 40.6615 53.7917 40.8125 52.4062 40.8125C50.3542 40.8125 48.4115 40.4531 46.5781 39.7344C44.7552 39.0156 43.1667 38.0156 41.8125 36.7344C40.4688 35.4427 39.401 33.8542 38.6094 31.9688C37.8281 30.0833 37.4375 28.0312 37.4375 25.8125C37.4375 23.5938 37.8281 21.5312 38.6094 19.625C39.401 17.7188 40.4688 16.1146 41.8125 14.8125C43.1667 13.5 44.7552 12.474 46.5781 11.7344C48.4115 10.9948 50.3542 10.625 52.4062 10.625C54.4583 10.625 56.3958 10.9948 58.2188 11.7344C60.0521 12.474 61.6406 13.5 62.9844 14.8125C64.3385 16.1146 65.4062 17.7188 66.1875 19.625C66.9792 21.5312 67.375 23.5938 67.375 25.8125L66.9844 27.5H46.7812ZM46.8906 22.5H57.9219C57.651 20.1042 57.0521 18.3594 56.125 17.2656C55.1979 16.1719 53.9688 15.625 52.4375 15.625C51.6771 15.625 50.9948 15.75 50.3906 16C49.7865 16.2396 49.2448 16.6302 48.7656 17.1719C48.2865 17.7031 47.8854 18.4167 47.5625 19.3125C47.25 20.1979 47.026 21.2604 46.8906 22.5ZM86.125 16.25V11.25H101.125V16.25H97.0312L90.8281 23.0625L99.1875 35H101.75V40H86.75V35H88.75L81.75 25L89.7188 16.25H86.125ZM68.625 1.25H80.5V35H83.625V40H68.625V35H71.75V6.25H68.625V1.25ZM104.25 1.25H116.125V35H119.25V40H104.25V35H107.375V6.25H104.25V1.25ZM122.578 49.6406C122.026 48.8073 121.75 47.8854 121.75 46.875C121.75 45.4896 122.234 44.3073 123.203 43.3281C124.182 42.3594 125.365 41.875 126.75 41.875C128.135 41.875 129.312 42.3594 130.281 43.3281C131.26 44.3073 131.75 45.4896 131.75 46.875C131.75 47.1667 131.724 47.4479 131.672 47.7188C131.714 47.7292 131.75 47.7344 131.781 47.7344C132.531 47.7344 133.448 46.4948 134.531 44.0156L135.703 41.3281L124.688 16.25H121.75V11.25H139.25V16.25H134.109L139.062 27.5C139.698 28.9792 140.156 30.2292 140.438 31.25C140.719 30.2292 141.177 28.9792 141.812 27.5L146.75 16.25H142.375V11.25H155.5V16.25H152.188L141.75 40C141.208 41.2292 140.719 42.2865 140.281 43.1719C139.854 44.0677 139.37 44.974 138.828 45.8906C138.297 46.8177 137.781 47.599 137.281 48.2344C136.781 48.8698 136.214 49.474 135.578 50.0469C134.953 50.6198 134.302 51.0729 133.625 51.4062C132.948 51.75 132.198 52.0156 131.375 52.2031C130.552 52.401 129.667 52.5 128.719 52.5C127.833 52.5 127.052 52.4271 126.375 52.2812C125.698 52.1458 125.12 51.9375 124.641 51.6562C124.172 51.3854 123.781 51.0885 123.469 50.7656C123.156 50.4531 122.859 50.0781 122.578 49.6406ZM178.625 10.625C180.083 10.625 181.359 10.8229 182.453 11.2188C183.547 11.6146 184.443 12.1615 185.141 12.8594C185.839 13.5469 186.401 14.4271 186.828 15.5C187.266 16.5625 187.568 17.7083 187.734 18.9375C187.911 20.1562 188 21.5521 188 23.125V35H191.125V40H176.125V35H179.25V22.5C179.25 20.8542 179.099 19.5729 178.797 18.6562C178.505 17.7396 178.078 17.1094 177.516 16.7656C176.964 16.4219 176.208 16.25 175.25 16.25C174.375 16.25 173.479 16.6198 172.562 17.3594C171.646 18.099 170.776 19.1302 169.953 20.4531L169.875 35H173V40H158V35H161.125V16.25H158V11.25H167.703L169.891 15.4844C170.276 14.7865 170.719 14.1615 171.219 13.6094C171.729 13.0469 172.333 12.5365 173.031 12.0781C173.74 11.6094 174.568 11.25 175.516 11C176.464 10.75 177.5 10.625 178.625 10.625Z" fill="#C388FF"/>
<path d="M0.5625 1.25V0.75H0.0625V1.25H0.5625ZM36.8125 1.25H37.3125V0.75H36.8125V1.25ZM36.8125 13.75V14.25H37.3125V13.75H36.8125ZM31.1875 13.75H30.6875V14.25H31.1875V13.75ZM31.0469 9.67188L30.5526 9.74792L30.5542 9.75714L31.0469 9.67188ZM30.6406 8.0625L30.1662 8.22064L30.1691 8.22891L30.6406 8.0625ZM29.8594 6.76562L29.5058 7.11922L29.5113 7.12457L29.8594 6.76562ZM23.6875 6.25V5.75H23.1875V6.25H23.6875ZM23.6875 35H23.1875V35.5H23.6875V35ZM28.6875 35H29.1875V34.5H28.6875V35ZM28.6875 40V40.5H29.1875V40H28.6875ZM8.6875 40H8.1875V40.5H8.6875V40ZM8.6875 35V34.5H8.1875V35H8.6875ZM13.6875 35V35.5H14.1875V35H13.6875ZM13.6875 6.25H14.1875V5.75H13.6875V6.25ZM7.51562 6.76562L7.86374 7.12462L7.86918 7.11918L7.51562 6.76562ZM6.71875 8.0625L6.24718 7.89606L6.24441 7.90439L6.71875 8.0625ZM6.3125 9.67188L5.81974 9.58659L5.81831 9.59585L6.3125 9.67188ZM6.1875 13.75V14.25H6.6875V13.75H6.1875ZM0.5625 13.75H0.0625V14.25H0.5625V13.75ZM0.5625 1.25V1.75H36.8125V1.25V0.75H0.5625V1.25ZM36.8125 1.25H36.3125V13.75H36.8125H37.3125V1.25H36.8125ZM36.8125 13.75V13.25H31.1875V13.75V14.25H36.8125V13.75ZM31.1875 13.75H31.6875V11.25H31.1875H30.6875V13.75H31.1875ZM31.1875 11.25H31.6875C31.6875 10.7089 31.6378 10.1543 31.5396 9.58661L31.0469 9.67188L30.5542 9.75714C30.6434 10.2728 30.6875 10.7703 30.6875 11.25H31.1875ZM31.0469 9.67188L31.5411 9.59585C31.4529 9.02256 31.3097 8.45587 31.1121 7.89609L30.6406 8.0625L30.1691 8.22891C30.3466 8.73163 30.4742 9.23785 30.5527 9.7479L31.0469 9.67188ZM30.6406 8.0625L31.115 7.90439C30.9168 7.30993 30.6178 6.80461 30.2074 6.40668L29.8594 6.76562L29.5113 7.12457C29.7884 7.3933 30.0103 7.75257 30.1663 8.22061L30.6406 8.0625ZM29.8594 6.76562L30.2129 6.41207C29.7868 5.98597 29.2729 5.75 28.6875 5.75V6.25V6.75C28.9771 6.75 29.2444 6.85778 29.5058 7.11918L29.8594 6.76562ZM28.6875 6.25V5.75H23.6875V6.25V6.75H28.6875V6.25ZM23.6875 6.25H23.1875V35H23.6875H24.1875V6.25H23.6875ZM23.6875 35V35.5H28.6875V35V34.5H23.6875V35ZM28.6875 35H28.1875V40H28.6875H29.1875V35H28.6875ZM28.6875 40V39.5H8.6875V40V40.5H28.6875V40ZM8.6875 40H9.1875V35H8.6875H8.1875V40H8.6875ZM8.6875 35V35.5H13.6875V35V34.5H8.6875V35ZM13.6875 35H14.1875V6.25H13.6875H13.1875V35H13.6875ZM13.6875 6.25V5.75H8.6875V6.25V6.75H13.6875V6.25ZM8.6875 6.25V5.75C8.10207 5.75 7.58817 5.98597 7.16207 6.41207L7.51562 6.76562L7.86918 7.11918C8.13058 6.85778 8.39793 6.75 8.6875 6.75V6.25ZM7.51562 6.76562L7.16755 6.40668C6.75935 6.80251 6.45595 7.30479 6.24725 7.89609L6.71875 8.0625L7.19025 8.22891C7.35655 7.75771 7.5844 7.39541 7.8637 7.12457L7.51562 6.76562ZM6.71875 8.0625L6.24441 7.90439C6.05954 8.45898 5.91793 9.01977 5.81982 9.58661L6.3125 9.67188L6.80518 9.75714C6.89457 9.24064 7.02379 8.72852 7.19309 8.22061L6.71875 8.0625ZM6.3125 9.67188L5.81831 9.59585C5.73139 10.1608 5.6875 10.7123 5.6875 11.25H6.1875H6.6875C6.6875 10.7668 6.72694 10.2662 6.80669 9.7479L6.3125 9.67188ZM6.1875 11.25H5.6875V13.75H6.1875H6.6875V11.25H6.1875ZM6.1875 13.75V13.25H0.5625V13.75V14.25H6.1875V13.75ZM0.5625 13.75H1.0625V1.25H0.5625H0.0625V13.75H0.5625ZM46.7812 27.5V27H46.241L46.2827 27.5387L46.7812 27.5ZM48.4688 33.0625L48.0604 33.3511L48.0638 33.3558L48.4688 33.0625ZM49.9844 34.5625L49.7001 34.9739L49.7053 34.9774L49.9844 34.5625ZM51.75 35.3906L51.617 35.8727L51.6248 35.8747L51.75 35.3906ZM58.8281 34.3594L59.1111 34.7716L59.1118 34.7711L58.8281 34.3594ZM61.7969 30.4219L61.9603 29.9493L61.5165 29.7958L61.3355 30.2292L61.7969 30.4219ZM65.9531 31.8594L66.4219 32.0333L66.5998 31.554L66.1166 31.3868L65.9531 31.8594ZM64.5156 34.7188L64.0966 34.4459L64.0958 34.4471L64.5156 34.7188ZM59.7188 39.1094L59.9552 39.5499L59.9569 39.549L59.7188 39.1094ZM46.5781 39.7344L46.3947 40.1995L46.3956 40.1999L46.5781 39.7344ZM41.8125 36.7344L41.466 37.0949L41.4689 37.0976L41.8125 36.7344ZM38.6094 31.9688L38.1475 32.1602L38.1484 32.1623L38.6094 31.9688ZM38.6094 19.625L38.1476 19.4332L38.1467 19.4354L38.6094 19.625ZM41.8125 14.8125L42.1604 15.1716L42.1605 15.1715L41.8125 14.8125ZM46.5781 11.7344L46.3911 11.2707L46.3901 11.2711L46.5781 11.7344ZM58.2188 11.7344L58.0308 12.1977L58.0317 12.1981L58.2188 11.7344ZM62.9844 14.8125L62.635 15.1702L62.6378 15.1729L62.9844 14.8125ZM66.1875 19.625L65.7248 19.8146L65.7257 19.8168L66.1875 19.625ZM67.375 25.8125L67.8621 25.9253L67.875 25.8696V25.8125H67.375ZM66.9844 27.5V28H67.3819L67.4715 27.6128L66.9844 27.5ZM46.8906 22.5L46.3936 22.4457L46.333 23H46.8906V22.5ZM57.9219 22.5V23H58.4816L58.4187 22.4438L57.9219 22.5ZM50.3906 16L50.575 16.4648L50.5818 16.462L50.3906 16ZM48.7656 17.1719L49.1369 17.5068L49.1401 17.5032L48.7656 17.1719ZM47.5625 19.3125L47.0921 19.1429L47.091 19.1461L47.5625 19.3125ZM46.7812 27.5L46.2827 27.5387C46.3789 28.7774 46.5826 29.8946 46.8986 30.8862L47.375 30.7344L47.8514 30.5826C47.5632 29.6783 47.3711 28.6392 47.2798 27.4613L46.7812 27.5ZM47.375 30.7344L46.8986 30.8862C47.2113 31.8672 47.5956 32.6935 48.0605 33.3511L48.4688 33.0625L48.877 32.7739C48.4877 32.2232 48.1429 31.4973 47.8514 30.5826L47.375 30.7344ZM48.4688 33.0625L48.0638 33.3558C48.5322 34.0026 49.0774 34.5436 49.7002 34.9739L49.9844 34.5625L50.2686 34.1511C49.7456 33.7898 49.2803 33.3308 48.8737 32.7692L48.4688 33.0625ZM49.9844 34.5625L49.7053 34.9774C50.3184 35.3898 50.9558 35.6902 51.617 35.8726L51.75 35.3906L51.883 34.9086C51.3358 34.7577 50.7961 34.506 50.2635 34.1476L49.9844 34.5625ZM51.75 35.3906L51.6248 35.8747C52.2738 36.0425 52.962 36.125 53.6875 36.125V35.625V35.125C53.038 35.125 52.4346 35.0512 51.8752 34.9066L51.75 35.3906ZM53.6875 35.625V36.125C55.941 36.125 57.7678 35.6937 59.1111 34.7716L58.8281 34.3594L58.5452 33.9472C57.4302 34.7125 55.8298 35.125 53.6875 35.125V35.625ZM58.8281 34.3594L59.1118 34.7711C60.4495 33.8493 61.4918 32.4498 62.2583 30.6146L61.7969 30.4219L61.3355 30.2292C60.6228 31.9356 59.6859 33.1611 58.5444 33.9477L58.8281 34.3594ZM61.7969 30.4219L61.6334 30.8944L65.7897 32.3319L65.9531 31.8594L66.1166 31.3868L61.9603 29.9493L61.7969 30.4219ZM65.9531 31.8594L65.4844 31.6854C65.1221 32.6614 64.6596 33.5813 64.0966 34.4459L64.5156 34.7188L64.9346 34.9916C65.5383 34.0645 66.0341 33.0782 66.4219 32.0333L65.9531 31.8594ZM64.5156 34.7188L64.0958 34.4471C63.5468 35.2957 62.8816 36.0815 62.0984 36.8045L62.4375 37.1719L62.7766 37.5393C63.6184 36.7622 64.3387 35.9126 64.9354 34.9904L64.5156 34.7188ZM62.4375 37.1719L62.0984 36.8045C61.3173 37.5255 60.4451 38.1473 59.4806 38.6697L59.7188 39.1094L59.9569 39.549C60.9924 38.9881 61.9327 38.3183 62.7766 37.5393L62.4375 37.1719ZM59.7188 39.1094L59.4823 38.6688C58.5352 39.1772 57.4563 39.5799 56.2419 39.8734L56.3594 40.3594L56.4768 40.8454C57.7624 40.5347 58.9231 40.104 59.9552 39.5499L59.7188 39.1094ZM56.3594 40.3594L56.2419 39.8734C55.0332 40.1655 53.7551 40.3125 52.4062 40.3125V40.8125V41.3125C53.8282 41.3125 55.1855 41.1574 56.4768 40.8454L56.3594 40.3594ZM52.4062 40.8125V40.3125C50.4139 40.3125 48.5334 39.9639 46.7606 39.2689L46.5781 39.7344L46.3956 40.1999C48.2895 40.9424 50.2944 41.3125 52.4062 41.3125V40.8125ZM46.5781 39.7344L46.7615 39.2692C44.995 38.5727 43.4616 37.6063 42.1561 36.3712L41.8125 36.7344L41.4689 37.0976C42.8718 38.425 44.5155 39.4586 46.3947 40.1995L46.5781 39.7344ZM41.8125 36.7344L42.159 36.3739C40.869 35.1339 39.8382 33.6039 39.0704 31.7752L38.6094 31.9688L38.1484 32.1623C38.9638 34.1045 40.0685 35.7515 41.466 37.0948L41.8125 36.7344ZM38.6094 31.9688L39.0713 31.7773C38.3173 29.9577 37.9375 27.9713 37.9375 25.8125H37.4375H36.9375C36.9375 28.0912 37.339 30.2089 38.1475 32.1602L38.6094 31.9688ZM37.4375 25.8125H37.9375C37.9375 23.6537 38.3173 21.6562 39.072 19.8146L38.6094 19.625L38.1467 19.4354C37.339 21.4063 36.9375 23.5338 36.9375 25.8125H37.4375ZM38.6094 19.625L39.0711 19.8168C39.8394 17.9669 40.8705 16.4216 42.1604 15.1716L41.8125 14.8125L41.4646 14.4534C40.067 15.8076 38.9627 17.4706 38.1476 19.4332L38.6094 19.625ZM41.8125 14.8125L42.1605 15.1715C43.4665 13.9057 45.0001 12.9142 46.7661 12.1977L46.5781 11.7344L46.3901 11.2711C44.5103 12.0337 42.8668 13.0943 41.4645 14.4535L41.8125 14.8125ZM46.5781 11.7344L46.7652 12.1981C48.5368 11.4834 50.4158 11.125 52.4062 11.125V10.625V10.125C50.2925 10.125 48.2861 10.5062 46.3911 11.2707L46.5781 11.7344ZM52.4062 10.625V11.125C54.3967 11.125 56.2701 11.4834 58.0308 12.1977L58.2188 11.7344L58.4067 11.2711C56.5215 10.5062 54.5199 10.125 52.4062 10.125V10.625ZM58.2188 11.7344L58.0317 12.1981C59.8077 12.9145 61.3403 13.9056 62.635 15.1702L62.9844 14.8125L63.3337 14.4548C61.9409 13.0944 60.2964 12.0334 58.4058 11.2707L58.2188 11.7344ZM62.9844 14.8125L62.6378 15.1729C63.9372 16.4223 64.9674 17.9665 65.7248 19.8146L66.1875 19.625L66.6502 19.4354C65.8451 17.471 64.7399 15.8069 63.3309 14.4521L62.9844 14.8125ZM66.1875 19.625L65.7257 19.8168C66.4903 21.6578 66.875 23.6546 66.875 25.8125H67.375H67.875C67.875 23.5329 67.468 21.4047 66.6493 19.4332L66.1875 19.625ZM67.375 25.8125L66.8879 25.6997L66.4973 27.3872L66.9844 27.5L67.4715 27.6128L67.8621 25.9253L67.375 25.8125ZM66.9844 27.5V27H46.7812V27.5V28H66.9844V27.5ZM46.8906 22.5V23H57.9219V22.5V22H46.8906V22.5ZM57.9219 22.5L58.4187 22.4438C58.1435 20.0096 57.5279 18.1475 56.5064 16.9423L56.125 17.2656L55.7436 17.5889C56.5762 18.5713 57.1585 20.1987 57.425 22.5562L57.9219 22.5ZM56.125 17.2656L56.5064 16.9423C55.4772 15.7281 54.1043 15.125 52.4375 15.125V15.625V16.125C53.8332 16.125 54.9186 16.6156 55.7436 17.5889L56.125 17.2656ZM52.4375 15.625V15.125C51.622 15.125 50.8733 15.2592 50.1994 15.538L50.3906 16L50.5818 16.462C51.1163 16.2408 51.7321 16.125 52.4375 16.125V15.625ZM50.3906 16L50.2063 15.5352C49.5212 15.8069 48.9164 16.2468 48.3911 16.8406L48.7656 17.1719L49.1401 17.5032C49.5732 17.0136 50.0517 16.6723 50.5749 16.4648L50.3906 16ZM48.7656 17.1719L48.3943 16.837C47.8599 17.4295 47.4302 18.2052 47.0921 19.1429L47.5625 19.3125L48.0329 19.4821C48.3407 18.6281 48.713 17.9768 49.1369 17.5068L48.7656 17.1719ZM47.5625 19.3125L47.091 19.1461C46.7623 20.0774 46.5319 21.1795 46.3936 22.4457L46.8906 22.5L47.3877 22.5543C47.5202 21.3413 47.7377 20.3185 48.034 19.4789L47.5625 19.3125ZM86.125 16.25H85.625V16.75H86.125V16.25ZM86.125 11.25V10.75H85.625V11.25H86.125ZM101.125 11.25H101.625V10.75H101.125V11.25ZM101.125 16.25V16.75H101.625V16.25H101.125ZM97.0312 16.25V15.75H96.8103L96.6616 15.9134L97.0312 16.25ZM90.8281 23.0625L90.4584 22.7259L90.1891 23.0216L90.4186 23.3493L90.8281 23.0625ZM99.1875 35L98.7779 35.2868L98.9272 35.5H99.1875V35ZM101.75 35H102.25V34.5H101.75V35ZM101.75 40V40.5H102.25V40H101.75ZM86.75 40H86.25V40.5H86.75V40ZM86.75 35V34.5H86.25V35H86.75ZM88.75 35V35.5H89.7103L89.1596 34.7133L88.75 35ZM81.75 25L81.3803 24.6633L81.111 24.9591L81.3404 25.2867L81.75 25ZM89.7188 16.25L90.0884 16.5867L90.8504 15.75H89.7188V16.25ZM68.625 1.25V0.75H68.125V1.25H68.625ZM80.5 1.25H81V0.75H80.5V1.25ZM80.5 35H80V35.5H80.5V35ZM83.625 35H84.125V34.5H83.625V35ZM83.625 40V40.5H84.125V40H83.625ZM68.625 40H68.125V40.5H68.625V40ZM68.625 35V34.5H68.125V35H68.625ZM71.75 35V35.5H72.25V35H71.75ZM71.75 6.25H72.25V5.75H71.75V6.25ZM68.625 6.25H68.125V6.75H68.625V6.25ZM86.125 16.25H86.625V11.25H86.125H85.625V16.25H86.125ZM86.125 11.25V11.75H101.125V11.25V10.75H86.125V11.25ZM101.125 11.25H100.625V16.25H101.125H101.625V11.25H101.125ZM101.125 16.25V15.75H97.0312V16.25V16.75H101.125V16.25ZM97.0312 16.25L96.6616 15.9134L90.4584 22.7259L90.8281 23.0625L91.1978 23.3991L97.4009 16.5866L97.0312 16.25ZM90.8281 23.0625L90.4186 23.3493L98.7779 35.2868L99.1875 35L99.5971 34.7132L91.2377 22.7757L90.8281 23.0625ZM99.1875 35V35.5H101.75V35V34.5H99.1875V35ZM101.75 35H101.25V40H101.75H102.25V35H101.75ZM101.75 40V39.5H86.75V40V40.5H101.75V40ZM86.75 40H87.25V35H86.75H86.25V40H86.75ZM86.75 35V35.5H88.75V35V34.5H86.75V35ZM88.75 35L89.1596 34.7133L82.1596 24.7133L81.75 25L81.3404 25.2867L88.3404 35.2867L88.75 35ZM81.75 25L82.1197 25.3367L90.0884 16.5867L89.7188 16.25L89.3491 15.9133L81.3803 24.6633L81.75 25ZM89.7188 16.25V15.75H86.125V16.25V16.75H89.7188V16.25ZM68.625 1.25V1.75H80.5V1.25V0.75H68.625V1.25ZM80.5 1.25H80V35H80.5H81V1.25H80.5ZM80.5 35V35.5H83.625V35V34.5H80.5V35ZM83.625 35H83.125V40H83.625H84.125V35H83.625ZM83.625 40V39.5H68.625V40V40.5H83.625V40ZM68.625 40H69.125V35H68.625H68.125V40H68.625ZM68.625 35V35.5H71.75V35V34.5H68.625V35ZM71.75 35H72.25V6.25H71.75H71.25V35H71.75ZM71.75 6.25V5.75H68.625V6.25V6.75H71.75V6.25ZM68.625 6.25H69.125V1.25H68.625H68.125V6.25H68.625ZM104.25 1.25V0.75H103.75V1.25H104.25ZM116.125 1.25H116.625V0.75H116.125V1.25ZM116.125 35H115.625V35.5H116.125V35ZM119.25 35H119.75V34.5H119.25V35ZM119.25 40V40.5H119.75V40H119.25ZM104.25 40H103.75V40.5H104.25V40ZM104.25 35V34.5H103.75V35H104.25ZM107.375 35V35.5H107.875V35H107.375ZM107.375 6.25H107.875V5.75H107.375V6.25ZM104.25 6.25H103.75V6.75H104.25V6.25ZM104.25 1.25V1.75H116.125V1.25V0.75H104.25V1.25ZM116.125 1.25H115.625V35H116.125H116.625V1.25H116.125ZM116.125 35V35.5H119.25V35V34.5H116.125V35ZM119.25 35H118.75V40H119.25H119.75V35H119.25ZM119.25 40V39.5H104.25V40V40.5H119.25V40ZM104.25 40H104.75V35H104.25H103.75V40H104.25ZM104.25 35V35.5H107.375V35V34.5H104.25V35ZM107.375 35H107.875V6.25H107.375H106.875V35H107.375ZM107.375 6.25V5.75H104.25V6.25V6.75H107.375V6.25ZM104.25 6.25H104.75V1.25H104.25H103.75V6.25H104.25ZM122.578 49.6406L122.999 49.3702L122.995 49.3645L122.578 49.6406ZM123.203 43.3281L122.851 42.9727L122.848 42.9765L123.203 43.3281ZM131.672 47.7188L131.181 47.6243L131.092 48.089L131.551 48.2038L131.672 47.7188ZM134.531 44.0156L134.989 44.2158L134.99 44.2155L134.531 44.0156ZM135.703 41.3281L136.161 41.528L136.249 41.3274L136.161 41.127L135.703 41.3281ZM124.688 16.25L125.145 16.0489L125.014 15.75H124.688V16.25ZM121.75 16.25H121.25V16.75H121.75V16.25ZM121.75 11.25V10.75H121.25V11.25H121.75ZM139.25 11.25H139.75V10.75H139.25V11.25ZM139.25 16.25V16.75H139.75V16.25H139.25ZM134.109 16.25V15.75H133.343L133.652 16.4515L134.109 16.25ZM139.062 27.5L139.522 27.3026L139.52 27.2985L139.062 27.5ZM140.438 31.25L139.955 31.3828L140.438 33.1324L140.92 31.3828L140.438 31.25ZM141.812 27.5L141.355 27.299L141.353 27.3027L141.812 27.5ZM146.75 16.25L147.208 16.4509L147.515 15.75H146.75V16.25ZM142.375 16.25H141.875V16.75H142.375V16.25ZM142.375 11.25V10.75H141.875V11.25H142.375ZM155.5 11.25H156V10.75H155.5V11.25ZM155.5 16.25V16.75H156V16.25H155.5ZM152.188 16.25V15.75H151.861L151.73 16.0488L152.188 16.25ZM141.75 40L142.208 40.2016L142.208 40.2012L141.75 40ZM140.281 43.1719L139.833 42.9504L139.83 42.9567L140.281 43.1719ZM138.828 45.8906L138.398 45.6362L138.394 45.642L138.828 45.8906ZM135.578 50.0469L135.243 49.6755L135.24 49.6783L135.578 50.0469ZM133.625 51.4062L133.404 50.9576L133.399 50.9604L133.625 51.4062ZM131.375 52.2031L131.264 51.7156L131.258 51.717L131.375 52.2031ZM126.375 52.2812L126.48 51.7924L126.473 51.791L126.375 52.2812ZM124.641 51.6562L124.894 51.225L124.891 51.2233L124.641 51.6562ZM123.469 50.7656L123.828 50.4179L123.822 50.4121L123.469 50.7656ZM122.578 49.6406L122.995 49.3645C122.498 48.614 122.25 47.7883 122.25 46.875H121.75H121.25C121.25 47.9825 121.554 49.0006 122.161 49.9168L122.578 49.6406ZM121.75 46.875H122.25C122.25 45.6204 122.683 44.5647 123.559 43.6798L123.203 43.3281L122.848 42.9765C121.786 44.0499 121.25 45.3588 121.25 46.875H121.75ZM123.203 43.3281L123.555 43.6836C124.44 42.808 125.495 42.375 126.75 42.375V41.875V41.375C125.234 41.375 123.925 41.9107 122.851 42.9727L123.203 43.3281ZM126.75 41.875V42.375C128.004 42.375 129.054 42.8079 129.928 43.6817L130.281 43.3281L130.635 42.9746C129.571 41.9109 128.266 41.375 126.75 41.375V41.875ZM130.281 43.3281L129.928 43.6817C130.813 44.567 131.25 45.6221 131.25 46.875H131.75H132.25C132.25 45.357 131.708 44.0476 130.635 42.9746L130.281 43.3281ZM131.75 46.875H131.25C131.25 47.1368 131.227 47.3863 131.181 47.6243L131.672 47.7188L132.163 47.8132C132.221 47.5095 132.25 47.1965 132.25 46.875H131.75ZM131.672 47.7188L131.551 48.2038C131.618 48.2207 131.697 48.2344 131.781 48.2344V47.7344V47.2344C131.793 47.2344 131.8 47.2353 131.801 47.2355C131.802 47.2357 131.8 47.2354 131.793 47.2337L131.672 47.7188ZM131.781 47.7344V48.2344C132.111 48.2344 132.411 48.0981 132.673 47.9032C132.935 47.7084 133.188 47.4342 133.433 47.102C133.925 46.4376 134.442 45.4682 134.989 44.2158L134.531 44.0156L134.073 43.8154C133.537 45.0422 133.055 45.9321 132.629 46.5074C132.417 46.7949 132.231 46.9857 132.077 47.1008C131.922 47.2157 131.827 47.2344 131.781 47.2344V47.7344ZM134.531 44.0156L134.99 44.2155L136.161 41.528L135.703 41.3281L135.245 41.1283L134.073 43.8158L134.531 44.0156ZM135.703 41.3281L136.161 41.127L125.145 16.0489L124.688 16.25L124.23 16.4511L135.245 41.5292L135.703 41.3281ZM124.688 16.25V15.75H121.75V16.25V16.75H124.688V16.25ZM121.75 16.25H122.25V11.25H121.75H121.25V16.25H121.75ZM121.75 11.25V11.75H139.25V11.25V10.75H121.75V11.25ZM139.25 11.25H138.75V16.25H139.25H139.75V11.25H139.25ZM139.25 16.25V15.75H134.109V16.25V16.75H139.25V16.25ZM134.109 16.25L133.652 16.4515L138.605 27.7015L139.062 27.5L139.52 27.2985L134.567 16.0485L134.109 16.25ZM139.062 27.5L138.603 27.6973C139.234 29.1651 139.683 30.3922 139.955 31.3828L140.438 31.25L140.92 31.1172C140.63 30.0662 140.162 28.7932 139.522 27.3027L139.062 27.5ZM140.438 31.25L140.92 31.3828C141.192 30.3922 141.641 29.1651 142.272 27.6973L141.812 27.5L141.353 27.3027C140.713 28.7932 140.245 30.0662 139.955 31.1172L140.438 31.25ZM141.812 27.5L142.27 27.7009L147.208 16.4509L146.75 16.25L146.292 16.0491L141.355 27.2991L141.812 27.5ZM146.75 16.25V15.75H142.375V16.25V16.75H146.75V16.25ZM142.375 16.25H142.875V11.25H142.375H141.875V16.25H142.375ZM142.375 11.25V11.75H155.5V11.25V10.75H142.375V11.25ZM155.5 11.25H155V16.25H155.5H156V11.25H155.5ZM155.5 16.25V15.75H152.188V16.25V16.75H155.5V16.25ZM152.188 16.25L151.73 16.0488L141.292 39.7988L141.75 40L142.208 40.2012L152.645 16.4512L152.188 16.25ZM141.75 40L141.292 39.7984C140.753 41.023 140.266 42.0734 139.833 42.9504L140.281 43.1719L140.73 43.3934C141.171 42.4996 141.664 41.4353 142.208 40.2016L141.75 40ZM140.281 43.1719L139.83 42.9567C139.41 43.8382 138.932 44.7314 138.398 45.6363L138.828 45.8906L139.259 46.145C139.807 45.2165 140.299 44.2972 140.733 43.387L140.281 43.1719ZM138.828 45.8906L138.394 45.642C137.872 46.5542 137.369 47.3139 136.888 47.9252L137.281 48.2344L137.674 48.5436C138.193 47.884 138.722 47.0812 139.262 46.1392L138.828 45.8906ZM137.281 48.2344L136.888 47.9252C136.407 48.537 135.859 49.1205 135.243 49.6755L135.578 50.0469L135.913 50.4182C136.568 49.8274 137.156 49.2026 137.674 48.5436L137.281 48.2344ZM135.578 50.0469L135.24 49.6783C134.646 50.223 134.034 50.6477 133.404 50.9577L133.625 51.4062L133.846 51.8548C134.57 51.4981 135.26 51.0166 135.916 50.4155L135.578 50.0469ZM133.625 51.4062L133.399 50.9604C132.762 51.2837 132.051 51.5362 131.264 51.7156L131.375 52.2031L131.486 52.6906C132.345 52.495 133.134 52.2163 133.851 51.8521L133.625 51.4062ZM131.375 52.2031L131.258 51.717C130.478 51.9047 129.632 52 128.719 52V52.5V53C129.701 53 130.626 52.8974 131.492 52.6893L131.375 52.2031ZM128.719 52.5V52C127.859 52 127.115 51.9291 126.48 51.7925L126.375 52.2812L126.27 52.77C126.989 52.925 127.807 53 128.719 53V52.5ZM126.375 52.2812L126.473 51.791C125.838 51.6639 125.315 51.4722 124.894 51.225L124.641 51.6562L124.388 52.0875C124.925 52.4028 125.558 52.6277 126.277 52.7715L126.375 52.2812ZM124.641 51.6562L124.891 51.2233C124.454 50.9711 124.102 50.7015 123.828 50.4179L123.469 50.7656L123.109 51.1133C123.46 51.4756 123.889 51.7997 124.39 52.0892L124.641 51.6562ZM123.469 50.7656L123.822 50.4121C123.539 50.1288 123.264 49.7828 122.999 49.3702L122.578 49.6406L122.158 49.911C122.455 50.3734 122.773 50.7775 123.115 51.1192L123.469 50.7656ZM185.141 12.8594L184.787 13.2129L184.79 13.2156L185.141 12.8594ZM186.828 15.5L186.364 15.6849L186.366 15.6904L186.828 15.5ZM187.734 18.9375L187.239 19.0047L187.24 19.0094L187.734 18.9375ZM188 35H187.5V35.5H188V35ZM191.125 35H191.625V34.5H191.125V35ZM191.125 40V40.5H191.625V40H191.125ZM176.125 40H175.625V40.5H176.125V40ZM176.125 35V34.5H175.625V35H176.125ZM179.25 35V35.5H179.75V35H179.25ZM178.797 18.6562L178.32 18.8079L178.322 18.8127L178.797 18.6562ZM177.516 16.7656L177.251 17.1901L177.255 17.1923L177.516 16.7656ZM172.562 17.3594L172.249 16.9702L172.562 17.3594ZM169.953 20.4531L169.529 20.189L169.454 20.3091L169.453 20.4504L169.953 20.4531ZM169.875 35L169.375 34.9973L169.372 35.5H169.875V35ZM173 35H173.5V34.5H173V35ZM173 40V40.5H173.5V40H173ZM158 40H157.5V40.5H158V40ZM158 35V34.5H157.5V35H158ZM161.125 35V35.5H161.625V35H161.125ZM161.125 16.25H161.625V15.75H161.125V16.25ZM158 16.25H157.5V16.75H158V16.25ZM158 11.25V10.75H157.5V11.25H158ZM167.703 11.25L168.147 11.0205L168.008 10.75H167.703V11.25ZM169.891 15.4844L169.446 15.7139L169.876 16.5453L170.328 15.7261L169.891 15.4844ZM171.219 13.6094L170.848 13.2734L170.848 13.2737L171.219 13.6094ZM173.031 12.0781L173.306 12.4961L173.307 12.4951L173.031 12.0781ZM178.625 10.625V11.125C180.039 11.125 181.256 11.3171 182.283 11.6889L182.453 11.2188L182.623 10.7486C181.463 10.3287 180.127 10.125 178.625 10.125V10.625ZM182.453 11.2188L182.283 11.6889C183.32 12.0642 184.149 12.5753 184.787 13.2129L185.141 12.8594L185.494 12.5058C184.736 11.7476 183.774 11.165 182.623 10.7486L182.453 11.2188ZM185.141 12.8594L184.79 13.2156C185.43 13.8466 185.958 14.665 186.364 15.6849L186.828 15.5L187.293 15.3151C186.844 14.1892 186.247 13.2472 185.492 12.5032L185.141 12.8594ZM186.828 15.5L186.366 15.6904C186.786 16.7104 187.078 17.8145 187.239 19.0047L187.734 18.9375L188.23 18.8703C188.058 17.6022 187.745 16.4146 187.29 15.3096L186.828 15.5ZM187.734 18.9375L187.24 19.0094C187.412 20.1989 187.5 21.5699 187.5 23.125H188H188.5C188.5 21.5343 188.411 20.1136 188.229 18.8656L187.734 18.9375ZM188 23.125H187.5V35H188H188.5V23.125H188ZM188 35V35.5H191.125V35V34.5H188V35ZM191.125 35H190.625V40H191.125H191.625V35H191.125ZM191.125 40V39.5H176.125V40V40.5H191.125V40ZM176.125 40H176.625V35H176.125H175.625V40H176.125ZM176.125 35V35.5H179.25V35V34.5H176.125V35ZM179.25 35H179.75V22.5H179.25H178.75V35H179.25ZM179.25 22.5H179.75C179.75 20.8329 179.598 19.4902 179.272 18.4998L178.797 18.6562L178.322 18.8127C178.6 19.6556 178.75 20.8754 178.75 22.5H179.25ZM178.797 18.6562L179.273 18.5046C178.962 17.5249 178.48 16.7689 177.776 16.339L177.516 16.7656L177.255 17.1923C177.676 17.4499 178.049 17.9543 178.32 18.8079L178.797 18.6562ZM177.516 16.7656L177.78 16.3412C177.119 15.9299 176.26 15.75 175.25 15.75V16.25V16.75C176.156 16.75 176.808 16.9138 177.251 17.1901L177.516 16.7656ZM175.25 16.25V15.75C174.227 15.75 173.223 16.1837 172.249 16.9702L172.562 17.3594L172.876 17.7485C173.735 17.0559 174.523 16.75 175.25 16.75V16.25ZM172.562 17.3594L172.249 16.9702C171.277 17.7543 170.372 18.833 169.529 20.189L169.953 20.4531L170.378 20.7172C171.18 19.4274 172.015 18.4436 172.876 17.7485L172.562 17.3594ZM169.953 20.4531L169.453 20.4504L169.375 34.9973L169.875 35L170.375 35.0027L170.453 20.4558L169.953 20.4531ZM169.875 35V35.5H173V35V34.5H169.875V35ZM173 35H172.5V40H173H173.5V35H173ZM173 40V39.5H158V40V40.5H173V40ZM158 40H158.5V35H158H157.5V40H158ZM158 35V35.5H161.125V35V34.5H158V35ZM161.125 35H161.625V16.25H161.125H160.625V35H161.125ZM161.125 16.25V15.75H158V16.25V16.75H161.125V16.25ZM158 16.25H158.5V11.25H158H157.5V16.25H158ZM158 11.25V11.75H167.703V11.25V10.75H158V11.25ZM167.703 11.25L167.259 11.4795L169.446 15.7139L169.891 15.4844L170.335 15.2549L168.147 11.0205L167.703 11.25ZM169.891 15.4844L170.328 15.7261C170.696 15.0596 171.117 14.4666 171.589 13.945L171.219 13.6094L170.848 13.2737C170.32 13.8564 169.856 14.5133 169.453 15.2427L169.891 15.4844ZM171.219 13.6094L171.589 13.9454C172.068 13.417 172.64 12.9335 173.306 12.4961L173.031 12.0781L172.757 11.6602C172.027 12.1394 171.39 12.6767 170.848 13.2734L171.219 13.6094ZM173.031 12.0781L173.307 12.4951C173.964 12.0607 174.74 11.7217 175.643 11.4835L175.516 11L175.388 10.5165C174.395 10.7783 173.516 11.158 172.755 11.6612L173.031 12.0781ZM175.516 11L175.643 11.4835C176.544 11.2459 177.537 11.125 178.625 11.125V10.625V10.125C177.463 10.125 176.383 10.2541 175.388 10.5165L175.516 11Z" fill="#340237" mask="url(#path-1-outside-1_47_1011)"/>
</svg>
